<svg width="847" height="868" viewBox="0 0 847 868" fill="none" xmlns="http://www.w3.org/2000/svg">
<ellipse cx="421.719" cy="433.445" rx="383.381" ry="394.041" fill="white"/>
<path fill-rule="evenodd" clip-rule="evenodd" d="M421.719 0C502.511 0 577.996 23.3505 642.135 63.8434L601.648 130.786C549.259 97.8145 487.648 78.8088 421.717 78.8088C231.155 78.8088 76.6744 237.585 76.6744 433.446C76.6744 532.244 115.982 621.605 179.4 685.912L122.597 738.987C46.8227 660.625 0 552.655 0 433.445C0 194.06 188.81 0 421.719 0Z" fill="#F48076"/>
<path fill-rule="evenodd" clip-rule="evenodd" d="M424.304 867.946C343.513 867.946 268.028 844.596 203.888 804.103L244.376 737.16C296.765 770.132 358.376 789.137 424.306 789.137C614.868 789.137 769.349 630.361 769.349 434.5C769.349 335.703 730.042 246.341 666.623 182.035L723.427 128.959C799.201 207.321 846.024 315.291 846.024 434.501C846.024 673.886 657.214 867.946 424.304 867.946Z" fill="#89D5E9"/>
<rect x="212.601" y="357.324" width="60.9925" height="237.32" fill="#163762"/>
<rect x="304.09" y="357.324" width="60.9925" height="237.32" fill="#163762"/>
<rect x="304.09" y="263.292" width="60.9925" height="58.2106" fill="#163762"/>
<rect x="395.579" y="263.292" width="60.9925" height="58.2106" fill="#163762"/>
<rect x="487.067" y="263.292" width="60.9925" height="58.2106" fill="#163762"/>
<path d="M487.067 594.644V357.324H624.3L487.067 594.644Z" fill="#163762"/>
<rect x="395.579" y="357.324" width="60.9925" height="237.32" fill="#163762"/>
</svg>
