<svg xmlns="http://www.w3.org/2000/svg" xmlns:xlink="http://www.w3.org/1999/xlink" width="1080" zoomAndPan="magnify" viewBox="0 0 810 809.999993" height="1080" preserveAspectRatio="xMidYMid meet" version="1.0"><path fill="#FFBADE" d="M 115.835938 575.96875 C 122.289062 594.78125 139.945312 606.632812 158.804688 606.632812 C 163.675781 606.632812 168.632812 605.839844 173.492188 604.171875 L 472.671875 501.535156 C 484.140625 497.601562 493.386719 489.4375 498.714844 478.550781 C 504.042969 467.660156 504.808594 455.347656 500.875 443.882812 L 443.675781 277.148438 C 435.554688 253.476562 409.695312 240.828125 386.019531 248.945312 L 86.839844 351.582031 C 63.167969 359.703125 50.519531 385.566406 58.636719 409.238281 Z M 127.992188 571.800781 L 70.792969 405.070312 C 68.375 398.027344 68.558594 390.726562 70.769531 384.164062 L 229.773438 443.707031 L 140.804688 588.316406 C 135.03125 584.496094 130.40625 578.84375 127.992188 571.800781 Z M 468.503906 489.382812 L 169.324219 592.019531 C 163.84375 593.898438 158.203125 594.207031 152.878906 593.214844 L 242.035156 448.296875 L 288.921875 465.855469 C 289.660156 466.132812 290.421875 466.265625 291.171875 466.265625 C 293.351562 466.265625 295.449219 465.152344 296.648438 463.203125 L 322.878906 420.5625 L 482.234375 480.238281 C 478.558594 484.375 473.882812 487.535156 468.503906 489.382812 Z M 431.523438 281.316406 L 488.722656 448.050781 C 491.078125 454.914062 491.050781 462.195312 488.761719 468.960938 L 329.742188 409.410156 L 418.710938 264.789062 C 424.488281 268.609375 429.105469 274.273438 431.523438 281.316406 Z M 91.007812 363.734375 L 390.191406 261.097656 C 393.675781 259.902344 397.226562 259.335938 400.71875 259.335938 C 402.71875 259.335938 404.691406 259.542969 406.632812 259.902344 L 288.472656 451.96875 L 77.292969 372.886719 C 80.890625 368.832031 85.53125 365.613281 91.007812 363.734375 Z M 168.578125 114.390625 L 355.429688 227.328125 C 356.441406 227.941406 357.59375 228.253906 358.75 228.253906 C 359.363281 228.253906 359.976562 228.167969 360.570312 227.992188 C 362.304688 227.480469 363.738281 226.261719 364.527344 224.640625 L 391.324219 169.53125 L 470.804688 189.101562 C 471.3125 189.226562 471.828125 189.289062 472.339844 189.289062 C 474.339844 189.289062 476.261719 188.351562 477.492188 186.699219 C 479.035156 184.625 479.1875 181.828125 477.875 179.605469 L 427.796875 94.53125 L 469.113281 9.554688 C 470.203125 7.320312 469.902344 4.660156 468.34375 2.722656 C 466.789062 0.785156 464.257812 -0.078125 461.839844 0.5 L 175.605469 69.15625 C 165.65625 71.542969 158.5 79.308594 156.929688 89.417969 C 155.355469 99.527344 159.820312 109.097656 168.578125 114.390625 Z M 356.050781 212.691406 L 211.324219 125.214844 L 378.5625 166.390625 Z M 416.648438 88.066406 L 217.9375 72.21875 L 451.613281 16.164062 Z M 169.625 91.390625 C 170.347656 86.742188 173.386719 83.269531 177.796875 81.90625 L 416.667969 100.957031 L 459.066406 172.976562 L 174.570312 102.933594 C 170.757812 100.300781 168.898438 96.054688 169.625 91.390625 Z M 751.550781 731.210938 C 750.402344 727.855469 752.1875 724.199219 755.546875 723.050781 C 758.898438 721.902344 762.554688 723.683594 763.707031 727.042969 L 789.195312 801.328125 C 790.34375 804.683594 788.558594 808.339844 785.199219 809.492188 C 784.511719 809.730469 783.804688 809.839844 783.117188 809.839844 C 780.445312 809.839844 777.953125 808.164062 777.039062 805.5 Z M 742.878906 666.324219 L 748.941406 684 C 750.09375 687.355469 748.304688 691.011719 744.949219 692.164062 C 744.257812 692.398438 743.554688 692.511719 742.863281 692.511719 C 740.195312 692.511719 737.699219 690.835938 736.785156 688.171875 L 730.722656 670.496094 C 722.148438 645.496094 707.089844 623.222656 687.183594 606.078125 C 684.496094 603.761719 684.195312 599.707031 686.511719 597.015625 C 688.828125 594.328125 692.882812 594.027344 695.570312 596.34375 C 717.203125 614.96875 733.5625 639.171875 742.878906 666.324219 Z M 640.140625 578.660156 C 608.027344 567.125 573.957031 566.894531 541.613281 577.992188 L 526.886719 583.042969 C 526.195312 583.28125 525.492188 583.394531 524.800781 583.394531 C 522.132812 583.394531 519.640625 581.71875 518.726562 579.050781 C 517.574219 575.695312 519.363281 572.039062 522.71875 570.886719 L 537.445312 565.835938 C 572.078125 553.957031 610.089844 554.214844 644.484375 566.566406 C 647.824219 567.765625 649.558594 571.445312 648.359375 574.785156 C 647.160156 578.125 643.480469 579.855469 640.140625 578.660156 Z M 448.179688 610.046875 L 347.75 644.5 C 347.058594 644.734375 346.355469 644.847656 345.664062 644.847656 C 342.996094 644.847656 340.503906 643.171875 339.589844 640.507812 C 338.4375 637.152344 340.226562 633.496094 343.582031 632.34375 L 444.011719 597.890625 C 447.367188 596.742188 451.023438 598.527344 452.175781 601.882812 C 453.328125 605.238281 451.539062 608.894531 448.179688 610.046875 Z M 275.074219 662.640625 C 276.226562 665.992188 274.441406 669.648438 271.082031 670.800781 L 185.1875 700.269531 C 176.039062 703.40625 166.5625 705.480469 157.027344 706.429688 C 156.808594 706.453125 156.59375 706.464844 156.382812 706.464844 C 153.121094 706.464844 150.328125 703.988281 149.996094 700.675781 C 149.644531 697.144531 152.222656 693.996094 155.753906 693.644531 C 164.304688 692.792969 172.804688 690.933594 181.015625 688.113281 L 266.914062 658.648438 C 270.265625 657.496094 273.925781 659.28125 275.074219 662.640625 Z M 109.605469 688.492188 C 112.972656 689.609375 114.796875 693.246094 113.675781 696.613281 C 112.78125 699.308594 110.273438 701.015625 107.582031 701.015625 C 106.910156 701.015625 106.226562 700.90625 105.554688 700.683594 C 75.9375 690.84375 51.277344 670.507812 36.113281 643.421875 C 34.378906 640.324219 35.484375 636.410156 38.582031 634.679688 C 41.675781 632.945312 45.589844 634.050781 47.324219 637.144531 C 60.917969 661.425781 83.039062 679.660156 109.605469 688.492188 Z M 20.167969 584.269531 C 19.691406 552.3125 31.367188 521.707031 53.046875 498.089844 C 55.449219 495.476562 59.511719 495.304688 62.125 497.703125 C 64.738281 500.101562 64.910156 504.164062 62.511719 506.78125 C 43.0625 527.964844 32.589844 555.417969 33.015625 584.078125 C 33.066406 587.625 30.234375 590.542969 26.6875 590.597656 C 26.65625 590.597656 26.621094 590.597656 26.589844 590.597656 C 23.085938 590.597656 20.21875 587.785156 20.167969 584.269531 Z M 577.308594 315.921875 L 503.046875 341.398438 C 502.355469 341.632812 501.652344 341.746094 500.960938 341.746094 C 498.292969 341.746094 495.800781 340.070312 494.886719 337.40625 C 493.734375 334.050781 495.523438 330.394531 498.878906 329.242188 L 573.140625 303.765625 C 576.496094 302.617188 580.148438 304.402344 581.300781 307.761719 C 582.453125 311.117188 580.664062 314.773438 577.308594 315.921875 Z M 627.183594 285.226562 L 660.167969 273.914062 C 680.328125 266.996094 697.890625 254.511719 710.960938 237.800781 C 713.148438 235.007812 717.1875 234.515625 719.980469 236.699219 C 722.777344 238.886719 723.269531 242.925781 721.082031 245.71875 C 706.476562 264.390625 686.855469 278.347656 664.335938 286.070312 L 631.355469 297.382812 C 630.664062 297.621094 629.960938 297.734375 629.269531 297.734375 C 626.597656 297.734375 624.105469 296.058594 623.191406 293.390625 C 622.039062 290.035156 623.828125 286.378906 627.183594 285.226562 Z M 674.285156 64.835938 C 675.976562 61.71875 679.871094 60.554688 682.992188 62.25 C 710.097656 76.933594 730.535156 101.089844 740.546875 130.269531 C 746.515625 147.667969 748.496094 165.6875 746.433594 183.828125 C 746.0625 187.109375 743.28125 189.53125 740.058594 189.53125 C 739.816406 189.53125 739.570312 189.515625 739.324219 189.488281 C 735.796875 189.085938 733.265625 185.90625 733.664062 182.378906 C 735.507812 166.148438 733.734375 150.019531 728.390625 134.4375 C 719.429688 108.316406 701.132812 86.691406 676.871094 73.550781 C 673.753906 71.855469 672.59375 67.957031 674.285156 64.835938 Z M 482.152344 96.046875 C 481 92.691406 482.789062 89.035156 486.144531 87.882812 L 584.742188 54.058594 C 597.523438 49.675781 610.792969 47.429688 624.183594 47.390625 C 624.191406 47.390625 624.195312 47.390625 624.203125 47.390625 C 627.742188 47.390625 630.617188 50.253906 630.628906 53.796875 C 630.636719 57.34375 627.769531 60.230469 624.222656 60.238281 C 612.242188 60.277344 600.363281 62.285156 588.914062 66.210938 L 490.316406 100.039062 C 489.625 100.273438 488.921875 100.386719 488.230469 100.386719 C 485.5625 100.386719 483.066406 98.710938 482.152344 96.046875 Z M 422.933594 726.460938 C 414.363281 701.484375 415.957031 675.003906 427.417969 651.90625 C 428.992188 648.726562 432.851562 647.425781 436.027344 649.003906 C 439.207031 650.582031 440.503906 654.4375 438.925781 657.617188 C 429.003906 677.617188 427.640625 700.585938 435.085938 722.292969 C 439.042969 733.820312 445.183594 744.113281 453.339844 752.882812 C 455.753906 755.480469 455.609375 759.546875 453.007812 761.960938 C 451.769531 763.113281 450.203125 763.683594 448.636719 763.683594 C 446.910156 763.683594 445.195312 762.992188 443.929688 761.632812 C 434.539062 751.535156 427.476562 739.703125 422.933594 726.460938 Z M 493.894531 776.699219 C 507.695312 779.960938 522.015625 779.273438 535.308594 774.710938 C 559.734375 766.332031 578.140625 745.761719 584.539062 719.675781 C 585.386719 716.234375 588.863281 714.125 592.308594 714.96875 C 595.757812 715.816406 597.863281 719.296875 597.019531 722.742188 C 589.570312 753.089844 568.058594 777.058594 539.476562 786.867188 C 530.34375 790 520.804688 791.574219 511.214844 791.574219 C 504.4375 791.574219 497.636719 790.785156 490.9375 789.203125 C 487.484375 788.390625 485.347656 784.925781 486.164062 781.472656 C 486.980469 778.023438 490.445312 775.886719 493.894531 776.699219 Z M 503.445312 602.554688 C 535.6875 601.578125 566.789062 618.636719 584.609375 647.078125 C 586.496094 650.085938 585.582031 654.050781 582.578125 655.933594 C 581.515625 656.597656 580.335938 656.914062 579.171875 656.914062 C 577.03125 656.914062 574.941406 655.847656 573.71875 653.902344 C 558.3125 629.3125 531.527344 614.550781 503.835938 615.398438 C 500.335938 615.554688 497.328125 612.71875 497.21875 609.171875 C 497.113281 605.625 499.898438 602.664062 503.445312 602.554688 Z M 503.445312 602.554688 " fill-opacity="1" fill-rule="nonzero"/></svg>